<svg xmlns="http://www.w3.org/2000/svg" width="1800" height="1000" viewBox="0 0 1800 1000">
  <rect width="1800" height="1000" fill="#ffffff"/>
  <style>
    .title{font:700 44px Arial, sans-serif;fill:#111}.sub{font:400 18px Arial, sans-serif;fill:#222}.h{font:700 17px Arial, sans-serif;fill:#111}.m{font:700 13px Arial, sans-serif;fill:#111}.s{font:400 11px Arial, sans-serif;fill:#111}.xs{font:400 10px Arial, sans-serif;fill:#111}.box{fill:#f7f7f7;stroke:#111;stroke-width:1.4}.panel{fill:#fff;stroke:#111;stroke-width:2}.line{stroke:#111;stroke-width:1.6;fill:none}.dash{stroke:#111;stroke-width:1.4;stroke-dasharray:6 6;fill:none}.chip{fill:#eee;stroke:#777;stroke-width:1}
  </style>
  <defs><marker id="arrow" markerWidth="10" markerHeight="10" refX="8" refY="3" orient="auto"><path d="M0,0 L0,6 L9,3 z" fill="#111"/></marker></defs>
  <text x="900" y="48" text-anchor="middle" class="title">HaleES Full System Vision</text>
  <text x="900" y="78" text-anchor="middle" class="sub">Governed hospitality intelligence where workflows, integrations, memory, and human approval operate inside one trusted system.</text>
  <g transform="translate(250 100)">
    <g><rect class="chip" x="0" y="0" rx="10" width="130" height="28"/><text class="m" x="65" y="18" text-anchor="middle">Enforcement First</text></g>
    <g transform="translate(145 0)"><rect class="chip" x="0" y="0" rx="10" width="130" height="28"/><text class="m" x="65" y="18" text-anchor="middle">Hospitality Native</text></g>
    <g transform="translate(290 0)"><rect class="chip" x="0" y="0" rx="10" width="100" height="28"/><text class="m" x="50" y="18" text-anchor="middle">Role Aware</text></g>
    <g transform="translate(405 0)"><rect class="chip" x="0" y="0" rx="10" width="125" height="28"/><text class="m" x="62" y="18" text-anchor="middle">Contract Driven</text></g>
    <g transform="translate(545 0)"><rect class="chip" x="0" y="0" rx="10" width="95" height="28"/><text class="m" x="47" y="18" text-anchor="middle">Observable</text></g>
    <g transform="translate(655 0)"><rect class="chip" x="0" y="0" rx="10" width="75" height="28"/><text class="m" x="37" y="18" text-anchor="middle">Stateful</text></g>
    <g transform="translate(745 0)"><rect class="chip" x="0" y="0" rx="10" width="130" height="28"/><text class="m" x="65" y="18" text-anchor="middle">Human Governed</text></g>
    <g transform="translate(890 0)"><rect class="chip" x="0" y="0" rx="10" width="85" height="28"/><text class="m" x="42" y="18" text-anchor="middle">Local First</text></g>
    <g transform="translate(990 0)"><rect class="chip" x="0" y="0" rx="10" width="105" height="28"/><text class="m" x="52" y="18" text-anchor="middle">Cloud Capable</text></g>
  </g>
  <rect class="panel" x="25" y="155" width="220" height="610" rx="8"/><text class="h" x="135" y="185" text-anchor="middle">Sources and Inputs</text>
  <g class="s" transform="translate(40 210)">
    <rect class="box" x="0" y="0" width="190" height="36" rx="5"/><text x="18" y="23">Managers</text>
    <rect class="box" x="0" y="46" width="190" height="36" rx="5"/><text x="18" y="69">Team Members</text>
    <rect class="box" x="0" y="92" width="190" height="36" rx="5"/><text x="18" y="115">POS Data</text>
    <rect class="box" x="0" y="138" width="190" height="36" rx="5"/><text x="18" y="161">Schedules</text>
    <rect class="box" x="0" y="184" width="190" height="36" rx="5"/><text x="18" y="207">Inventory</text>
    <rect class="box" x="0" y="230" width="190" height="36" rx="5"/><text x="18" y="253">Guest Feedback</text>
    <rect class="box" x="0" y="276" width="190" height="36" rx="5"/><text x="18" y="299">Vendor Signals</text>
    <rect class="box" x="0" y="322" width="190" height="36" rx="5"/><text x="18" y="345">Uploaded Files</text>
    <rect class="box" x="0" y="368" width="190" height="36" rx="5"/><text x="18" y="391">Internal Sensei Chat</text>
    <rect class="box" x="0" y="414" width="190" height="36" rx="5"/><text x="18" y="437">External Messages</text>
    <rect class="box" x="0" y="460" width="190" height="36" rx="5"/><text x="18" y="483">API and Webhooks</text>
  </g>
  <rect class="panel" x="305" y="155" width="920" height="240" rx="8"/><text class="h" x="765" y="182" text-anchor="middle">HaleES Cloud and Sensei OS Control Plane</text>
  <g class="m" transform="translate(330 205)">
    <rect class="box" x="0" y="0" width="135" height="58" rx="6"/><text x="68" y="34" text-anchor="middle">Sensei OS</text>
    <rect class="box" x="150" y="0" width="135" height="58" rx="6"/><text x="218" y="25" text-anchor="middle">Identity and</text><text x="218" y="42" text-anchor="middle">RBAC</text>
    <rect class="box" x="300" y="0" width="135" height="58" rx="6"/><text x="368" y="34" text-anchor="middle">Contracts</text>
    <rect class="box" x="450" y="0" width="160" height="58" rx="6"/><text x="530" y="25" text-anchor="middle">Policy and</text><text x="530" y="42" text-anchor="middle">Authority Engine</text>
    <rect class="box" x="625" y="0" width="145" height="58" rx="6"/><text x="698" y="25" text-anchor="middle">Grading and</text><text x="698" y="42" text-anchor="middle">Binary Gate</text>
    <rect class="box" x="785" y="0" width="110" height="58" rx="6"/><text x="840" y="25" text-anchor="middle">Workflow</text><text x="840" y="42" text-anchor="middle">Center</text>
    <rect class="box" x="0" y="75" width="135" height="58" rx="6"/><text x="68" y="100" text-anchor="middle">Rule</text><text x="68" y="117" text-anchor="middle">Management</text>
    <rect class="box" x="150" y="75" width="160" height="58" rx="6"/><text x="230" y="100" text-anchor="middle">Marketplace and</text><text x="230" y="117" text-anchor="middle">Modules</text>
    <rect class="box" x="325" y="75" width="150" height="58" rx="6"/><text x="400" y="100" text-anchor="middle">Organization</text><text x="400" y="117" text-anchor="middle">Memory</text>
    <rect class="box" x="490" y="75" width="170" height="58" rx="6"/><text x="575" y="100" text-anchor="middle">Audit Logs and</text><text x="575" y="117" text-anchor="middle">Telemetry</text>
    <rect class="box" x="675" y="75" width="220" height="58" rx="6"/><text x="785" y="100" text-anchor="middle">Billing and</text><text x="785" y="117" text-anchor="middle">Tenant Settings</text>
  </g>
  <text class="xs" x="325" y="370">Knowledge is not authority.</text><text class="xs" x="735" y="370" text-anchor="middle">Generation is not acceptance.</text><text class="xs" x="1190" y="370" text-anchor="end">Automation is earned, not assumed.</text>
  <rect class="panel" x="305" y="430" width="920" height="210" rx="8"/><text class="h" x="765" y="458" text-anchor="middle">Store Runtime and Operating Layer</text>
  <g class="m" transform="translate(330 480)">
    <rect class="box" x="0" y="0" width="135" height="50" rx="6"/><text x="68" y="21" text-anchor="middle">Restaurant</text><text x="68" y="38" text-anchor="middle">Store</text>
    <rect class="box" x="150" y="0" width="135" height="50" rx="6"/><text x="218" y="21" text-anchor="middle">Restaurant</text><text x="218" y="38" text-anchor="middle">Dashboard</text>
    <rect class="box" x="300" y="0" width="135" height="50" rx="6"/><text x="368" y="21" text-anchor="middle">ShiftSense</text><text x="368" y="38" text-anchor="middle">Scheduling</text>
    <rect class="box" x="450" y="0" width="135" height="50" rx="6"/><text x="518" y="21" text-anchor="middle">RushSense</text><text x="518" y="38" text-anchor="middle">Live Ops</text>
    <rect class="box" x="600" y="0" width="135" height="50" rx="6"/><text x="668" y="21" text-anchor="middle">Team</text><text x="668" y="38" text-anchor="middle">Comms</text>
    <rect class="box" x="750" y="0" width="145" height="50" rx="6"/><text x="822" y="21" text-anchor="middle">Manager</text><text x="822" y="38" text-anchor="middle">Approval Gates</text>
    <rect class="box" x="0" y="70" width="150" height="50" rx="6"/><text x="75" y="100" text-anchor="middle">Task Automation</text>
    <rect class="box" x="170" y="70" width="135" height="50" rx="6"/><text x="238" y="100" text-anchor="middle">Guest Recovery</text>
    <rect class="box" x="325" y="70" width="135" height="50" rx="6"/><text x="393" y="100" text-anchor="middle">Creative Studio</text>
    <rect class="box" x="480" y="70" width="180" height="50" rx="6"/><text x="570" y="91" text-anchor="middle">Emergency and</text><text x="570" y="108" text-anchor="middle">Offline Mode</text>
    <rect class="box" x="680" y="70" width="215" height="50" rx="6"/><text x="788" y="100" text-anchor="middle">Local Device Support</text>
  </g>
  <text class="xs" x="325" y="620">A useful answer is not the same thing as permission to act.</text>
  <rect class="panel" x="305" y="675" width="920" height="220" rx="8"/><text class="h" x="765" y="702" text-anchor="middle">Persistence and State</text>
  <g class="xs" transform="translate(325 725)">
    <g><ellipse cx="62" cy="12" rx="62" ry="12" fill="#fff" stroke="#111"/><rect x="0" y="12" width="124" height="125" fill="#fff" stroke="#111"/><ellipse cx="62" cy="137" rx="62" ry="12" fill="#fff" stroke="#111"/><text class="m" x="62" y="36" text-anchor="middle">Operational DB</text><text x="10" y="55">• Stores</text><text x="10" y="70">• Employees</text><text x="10" y="85">• Schedules</text><text x="10" y="100">• Roles</text><text x="10" y="115">• Workflow Events</text></g>
    <g transform="translate(145 0)"><ellipse cx="62" cy="12" rx="62" ry="12" fill="#fff" stroke="#111"/><rect x="0" y="12" width="124" height="125" fill="#fff" stroke="#111"/><ellipse cx="62" cy="137" rx="62" ry="12" fill="#fff" stroke="#111"/><text class="m" x="62" y="36" text-anchor="middle">Audit Store</text><text x="10" y="55">• Action Logs</text><text x="10" y="70">• Blocked Actions</text><text x="10" y="85">• Grading Results</text><text x="10" y="100">• Overrides</text><text x="10" y="115">• Outcomes</text></g>
    <g transform="translate(290 0)"><ellipse cx="62" cy="12" rx="62" ry="12" fill="#fff" stroke="#111"/><rect x="0" y="12" width="124" height="125" fill="#fff" stroke="#111"/><ellipse cx="62" cy="137" rx="62" ry="12" fill="#fff" stroke="#111"/><text class="m" x="62" y="36" text-anchor="middle">Memory Store</text><text x="10" y="55">• Personal Memory</text><text x="10" y="70">• Org Memory</text><text x="10" y="85">• Pattern Intel</text><text x="10" y="100">• Contract Archive</text><text x="10" y="115">• Agent Runs</text></g>
    <g transform="translate(435 0)"><ellipse cx="62" cy="12" rx="62" ry="12" fill="#fff" stroke="#111"/><rect x="0" y="12" width="124" height="125" fill="#fff" stroke="#111"/><ellipse cx="62" cy="137" rx="62" ry="12" fill="#fff" stroke="#111"/><text class="m" x="62" y="36" text-anchor="middle">Artifact Store</text><text x="10" y="55">• Uploads</text><text x="10" y="70">• Reports</text><text x="10" y="85">• Images</text><text x="10" y="100">• PDFs</text><text x="10" y="115">• Documents</text></g>
    <g transform="translate(580 0)"><ellipse cx="62" cy="12" rx="62" ry="12" fill="#fff" stroke="#111"/><rect x="0" y="12" width="124" height="125" fill="#fff" stroke="#111"/><ellipse cx="62" cy="137" rx="62" ry="12" fill="#fff" stroke="#111"/><text class="m" x="62" y="36" text-anchor="middle">Integration State</text><text x="10" y="55">• POS Sync</text><text x="10" y="70">• KDS Sync</text><text x="10" y="85">• Twilio Status</text><text x="10" y="100">• Webhook Queue</text><text x="10" y="115">• OAuth Boundary</text></g>
    <g transform="translate(725 0)"><ellipse cx="62" cy="12" rx="62" ry="12" fill="#fff" stroke="#111"/><rect x="0" y="12" width="124" height="125" fill="#fff" stroke="#111"/><ellipse cx="62" cy="137" rx="62" ry="12" fill="#fff" stroke="#111"/><text class="m" x="62" y="36" text-anchor="middle">Runtime State</text><text x="10" y="55">• Active Session</text><text x="10" y="70">• Active Identity</text><text x="10" y="85">• Delegation</text><text x="10" y="100">• Retry Queue</text><text x="10" y="115">• Offline Cache</text></g>
  </g>
  <rect class="panel" x="1270" y="155" width="230" height="740" rx="8"/><text class="h" x="1385" y="185" text-anchor="middle">External Integrations</text>
  <g class="s" transform="translate(1290 210)">
    <rect class="box" x="0" y="0" width="190" height="32" rx="5"/><text x="15" y="21">POS</text><rect class="box" x="0" y="42" width="190" height="32" rx="5"/><text x="15" y="63">KDS</text><rect class="box" x="0" y="84" width="190" height="32" rx="5"/><text x="15" y="105">Twilio</text><rect class="box" x="0" y="126" width="190" height="32" rx="5"/><text x="15" y="147">SendGrid</text><rect class="box" x="0" y="168" width="190" height="32" rx="5"/><text x="15" y="189">Google OAuth</text><rect class="box" x="0" y="210" width="190" height="32" rx="5"/><text x="15" y="231">Calendar</text><rect class="box" x="0" y="252" width="190" height="32" rx="5"/><text x="15" y="273">Payroll</text><rect class="box" x="0" y="294" width="190" height="32" rx="5"/><text x="15" y="315">Vendor APIs</text><rect class="box" x="0" y="336" width="190" height="32" rx="5"/><text x="15" y="357">Reservation Platforms</text><rect class="box" x="0" y="378" width="190" height="32" rx="5"/><text x="15" y="399">Delivery Platforms</text><rect class="box" x="0" y="420" width="190" height="32" rx="5"/><text x="15" y="441">Storage Providers</text><rect class="box" x="0" y="462" width="190" height="32" rx="5"/><text x="15" y="483">LLM Providers</text><rect class="box" x="0" y="504" width="190" height="32" rx="5"/><text x="15" y="525">Image and Video APIs</text>
  </g>
  <rect class="panel" x="1530" y="155" width="245" height="740" rx="8"/><text class="h" x="1652" y="185" text-anchor="middle">Full Vision Domains</text>
  <g transform="translate(1550 215)"><text class="m" x="0" y="0">Sensei Intelligence Layer</text><text class="xs" x="0" y="18">Governed reasoning and scoring.</text><text class="m" x="0" y="58">Hospitality Operating System</text><text class="xs" x="0" y="76">Labor, tasks, incidents, inventory.</text><text class="m" x="0" y="116">Marketplace and Modules</text><text class="xs" x="0" y="134">Primitives, agents, workflows.</text><text class="m" x="0" y="174">Integration Fabric</text><text class="xs" x="0" y="192">POS, KDS, payroll, vendor, storage.</text><text class="m" x="0" y="232">Operational Twin</text><text class="xs" x="0" y="250">Stores, employees, demand, outcomes.</text><text class="m" x="0" y="290">Memory Architecture</text><text class="xs" x="0" y="308">Personal, org, and pattern memory.</text><text class="m" x="0" y="348">Observability and Audit</text><text class="xs" x="0" y="366">Blocks, approvals, traces, health.</text><text class="m" x="0" y="406">Creative and Communication Studio</text><text class="xs" x="0" y="424">Images, campaigns, messages.</text><text class="m" x="0" y="464">Emergency and Offline Mode</text><text class="xs" x="0" y="482">Safe mode and local continuity.</text></g>
  <path class="line" marker-end="url(#arrow)" d="M245 315 H305"/><path class="line" marker-end="url(#arrow)" d="M245 520 H305"/><path class="line" marker-end="url(#arrow)" d="M1225 315 H1270"/><path class="line" marker-end="url(#arrow)" d="M1225 520 H1270"/><path class="line" marker-end="url(#arrow)" d="M765 395 V430"/><path class="line" marker-end="url(#arrow)" d="M765 640 V675"/><path class="dash" marker-end="url(#arrow)" d="M480 675 C500 570 500 480 540 395"/><path class="dash" marker-end="url(#arrow)" d="M650 675 C680 570 690 485 700 395"/>
  <g transform="translate(25 925)"><rect class="panel" x="0" y="0" width="410" height="55" rx="8"/><text class="h" x="15" y="22">Core Operating Layer</text><text class="xs" x="15" y="42">Sensei OS · Restaurant Dashboard · ShiftSense · RushSense · Workflow Center · Approval Gates</text></g>
  <g transform="translate(465 925)"><rect class="panel" x="0" y="0" width="410" height="55" rx="8"/><text class="h" x="15" y="22">Governance Layer</text><text class="xs" x="15" y="42">Identity and RBAC · Policy Engine · Contracts · Grading Gate · Rule Management · Audit Trail</text></g>
  <g transform="translate(905 925)"><rect class="panel" x="0" y="0" width="410" height="55" rx="8"/><text class="h" x="15" y="22">Persistence Layer</text><text class="xs" x="15" y="42">Operational DB · Memory Store · Artifact Store · Runtime State · Integration State · Outcome History</text></g>
  <g transform="translate(1345 925)"><rect class="panel" x="0" y="0" width="430" height="55" rx="8"/><text class="h" x="15" y="22">Platform Outcomes</text><text class="xs" x="15" y="42">Safer decisions · Lower manager chaos · Auditable operations · Better labor timing · Cleaner integrations</text></g>
</svg>